<svg width="50" height="50" viewBox="0 0 50 50" fill="none" xmlns="http://www.w3.org/2000/svg">
<g clip-path="url(#clip0_14_360)">
<path d="M25.0006 50.0012C38.8081 50.0012 50.0012 38.8081 50.0012 25.0006C50.0012 11.1932 38.8081 0 25.0006 0C11.1932 0 0 11.1932 0 25.0006C0 38.8081 11.1932 50.0012 25.0006 50.0012Z" fill="white"/>
<path d="M41.9448 17.9C41.2354 16.1387 40.2648 14.5301 38.8201 13.243C38.6366 13.0805 38.5122 12.7504 38.5122 12.4991C38.5109 10.5149 37.7608 8.8287 36.5365 7.31866C36.4491 7.2115 36.3358 7.12529 36.1855 6.98364C35.614 7.84951 35.2802 8.76219 35.1842 9.7426C35.1644 9.94706 35.1213 10.0813 35.0413 10.1688L35.1484 10.2636L36.2299 11.2194C34.8245 10.5826 32.5299 10.8548 31.5248 11.0186C31.3389 11.0482 31.1972 11.0753 31.1135 11.0913C29.33 12.0077 28.0589 13.6864 27.5872 15.8887C27.2337 17.5379 28.0441 19.6256 29.697 19.9815C33.4487 20.7895 35.9084 23.551 34.6102 27.7103C33.9402 29.8608 32.488 31.4275 30.808 32.8144C29.5443 33.8576 28.2412 34.8516 26.8358 35.9638L22.2651 36.6499H22.2638L19.5147 37.0625L20.6269 37.916L22.69 39.5L23.9931 40.5001L25.4773 41.6394L28.4998 43.9599C28.4998 43.9599 28.4998 43.9586 28.5035 43.9586H28.5048C28.5048 43.9586 28.5122 43.9525 28.5183 43.95C28.5208 43.9488 28.5245 43.9463 28.5282 43.9439C28.5392 43.9365 28.5528 43.9291 28.57 43.9192C28.5725 43.918 28.575 43.9168 28.5774 43.9143C28.5971 43.902 28.6218 43.8872 28.6501 43.87C28.6723 43.8576 28.6981 43.8416 28.7265 43.8232C28.761 43.8022 28.7991 43.7788 28.8398 43.7542C28.9211 43.7049 29.0171 43.6446 29.1255 43.5756C29.1625 43.5522 29.1994 43.5288 29.2388 43.5041C29.2967 43.4672 29.3583 43.429 29.4224 43.3871C29.4544 43.3662 29.4864 43.3453 29.5209 43.3231C29.5271 43.3206 29.5332 43.3157 29.5394 43.312C29.5665 43.2935 29.5948 43.2751 29.6231 43.2566C29.6552 43.2369 29.6872 43.2159 29.7204 43.1938C29.7451 43.179 29.7697 43.163 29.7943 43.1457C29.8103 43.1359 29.8251 43.126 29.8411 43.1149C29.915 43.0657 29.9914 43.0152 30.0715 42.9634C30.1527 42.9092 30.2353 42.8538 30.3215 42.7947C30.3634 42.7664 30.4065 42.738 30.4496 42.7085C30.5789 42.6198 30.7144 42.5274 30.8536 42.4326C30.872 42.419 30.8918 42.4067 30.9115 42.3919C31.143 42.2318 31.3881 42.0594 31.6418 41.8759C31.7983 41.7638 31.9572 41.648 32.1197 41.5285H32.121C34.6373 39.6749 37.8877 36.9356 39.9052 33.9032C40.2328 33.4573 40.5333 32.9979 40.808 32.5274C40.8117 32.5213 40.8154 32.5151 40.8179 32.509C40.8351 32.4806 40.8511 32.4523 40.8671 32.4252C40.8942 32.3796 40.9201 32.3328 40.9447 32.2873C40.978 32.2281 41.0112 32.1702 41.0433 32.1099C41.0642 32.0742 41.0827 32.0397 41.1011 32.004C41.1147 31.9818 41.1258 31.9584 41.1369 31.9362C41.1418 31.9264 41.1467 31.9165 41.1529 31.9067C41.2391 31.7416 41.3228 31.5753 41.4029 31.4078C41.4374 31.3376 41.4706 31.2687 41.5027 31.1972C41.6418 30.8955 41.7699 30.5912 41.8882 30.2821C42.4104 28.9469 42.7627 27.533 42.9585 26.0463C43.3292 23.2381 42.9979 20.5149 41.9448 17.9ZM30.8326 16.1991C30.2439 16.1904 29.6552 15.5795 29.6699 14.9957C29.6847 14.3922 30.3597 13.7911 31.0063 13.8034C31.6111 13.8145 32.1099 14.3897 32.0865 15.0499C32.0643 15.7224 31.531 16.2101 30.8326 16.1991Z" fill="#F7B0BD"/>
<path d="M22.6395 35.6054C22.1949 35.2556 21.7589 34.9157 21.3327 34.5819C21.0839 34.386 20.8376 34.1927 20.5925 33.9993C20.1047 33.6125 19.6256 33.2283 19.1514 32.8378C18.6784 32.4474 18.2252 32.0434 17.8002 31.616C17.565 31.3783 17.3384 31.1344 17.1241 30.8807C16.3506 29.968 15.7273 28.9432 15.3492 27.7337C15.1854 27.209 15.0795 26.6954 15.0277 26.1954C15.0277 26.1954 15.0265 26.1929 15.0265 26.1917C15.0142 26.0673 15.0043 25.9441 14.9969 25.8234C14.9969 25.8123 14.9969 25.8012 14.9957 25.7901C14.9932 25.736 14.9908 25.683 14.9896 25.63C14.9883 25.5672 14.9871 25.5056 14.9871 25.444C14.9871 25.3467 14.9896 25.2507 14.9933 25.1546C14.9945 25.1287 14.9957 25.1016 14.9969 25.0758C14.9994 25.0401 15.0019 25.0056 15.0043 24.9711C15.008 24.907 15.0142 24.8418 15.0203 24.7777C15.0253 24.7321 15.0302 24.6878 15.0351 24.6435C15.0413 24.5905 15.0487 24.5375 15.0561 24.4858C15.0635 24.4341 15.0721 24.3823 15.0807 24.3306C15.0893 24.2789 15.0992 24.2271 15.109 24.1767C15.1176 24.1311 15.1275 24.0843 15.1361 24.0387C15.1472 23.9944 15.1571 23.9513 15.1681 23.9081C15.1681 23.9081 15.1681 23.9057 15.1681 23.9044C15.1743 23.8774 15.1817 23.8503 15.1891 23.8232C15.1928 23.8071 15.1965 23.7911 15.2014 23.7751V23.7714C15.2137 23.7283 15.2248 23.6852 15.2371 23.6433C15.263 23.5547 15.2901 23.4672 15.3184 23.381C15.3332 23.3391 15.348 23.2972 15.3628 23.2566C15.3714 23.2344 15.3788 23.2135 15.3862 23.1925C15.3935 23.1716 15.4022 23.1507 15.4108 23.1297V23.1273C15.4268 23.0866 15.4428 23.046 15.4601 23.0053V23.0029C15.4773 22.9622 15.4945 22.9216 15.513 22.8822V22.8797C15.5303 22.839 15.5487 22.7996 15.5672 22.7602V22.7578C15.5869 22.7183 15.6054 22.6789 15.6251 22.6395V22.6371C15.6448 22.5989 15.6645 22.5595 15.6855 22.5213V22.5188C15.6978 22.4954 15.7101 22.4732 15.7224 22.4511C15.7298 22.4351 15.7396 22.419 15.7483 22.4043V22.4018C15.7692 22.3624 15.7914 22.3254 15.8135 22.2885C15.8123 22.2885 15.8123 22.2873 15.8123 22.2873C15.8123 22.286 15.8135 22.286 15.8135 22.286C15.8357 22.2478 15.8579 22.2109 15.8801 22.1739V22.1715C15.9035 22.1345 15.9269 22.0976 15.9503 22.0619V22.0594C15.9737 22.0224 15.9983 21.9867 16.0229 21.951C16.0217 21.951 16.0217 21.9498 16.0217 21.9498H16.0229C16.0476 21.9128 16.0722 21.8771 16.0968 21.8414V21.8389C16.1227 21.8032 16.1486 21.7687 16.1744 21.7342V21.7318C16.2003 21.6973 16.2262 21.6628 16.2533 21.6283C16.3469 21.5051 16.4454 21.3857 16.5489 21.2711L16.5932 21.2231C16.6523 21.1566 16.7127 21.0938 16.7755 21.0309C16.8174 20.9891 16.8605 20.9472 16.9048 20.9065C16.9196 20.893 16.9331 20.8782 16.9492 20.8647C16.9849 20.8314 17.0206 20.7994 17.0575 20.7674C17.0822 20.7452 17.1056 20.7243 17.1302 20.7021C17.1733 20.6651 17.2177 20.6282 17.2632 20.5925C17.2743 20.5826 17.2866 20.5728 17.299 20.5629C17.3137 20.5506 17.3285 20.5383 17.3433 20.5272C17.3679 20.5075 17.3938 20.489 17.4184 20.4693C17.4197 20.4668 17.4221 20.4656 17.4246 20.4644C17.4603 20.436 17.4985 20.4089 17.5354 20.3818C17.5354 20.3806 17.5379 20.3794 17.5391 20.3794C17.5773 20.3511 17.6167 20.3227 17.6561 20.2969C17.735 20.2427 17.815 20.1909 17.8963 20.1392C18.0183 20.0628 18.1427 19.9902 18.2707 19.9212C18.272 19.9212 18.2732 19.92 18.2744 19.9187C18.2917 19.9089 18.3102 19.899 18.3274 19.8904C18.3348 19.8867 18.3422 19.883 18.3483 19.8793C18.3841 19.8608 18.4198 19.8424 18.4555 19.8251C18.5528 19.7759 18.6513 19.7303 18.7511 19.686C18.7917 19.6675 18.8349 19.6502 18.878 19.6318C18.9814 19.5886 19.0861 19.5468 19.192 19.5086C19.229 19.495 19.2659 19.4827 19.3029 19.4704C19.4064 19.4347 19.5123 19.4014 19.6194 19.3694C19.6675 19.3559 19.7143 19.3435 19.7623 19.33C19.7635 19.33 19.766 19.33 19.7672 19.3288C19.8682 19.3017 19.9692 19.2758 20.0715 19.2524L20.1281 19.2401C20.2057 19.2241 20.2808 19.2044 20.3547 19.1822C20.4286 19.1625 20.5013 19.1391 20.5715 19.1145C20.5765 19.1132 20.5826 19.1108 20.5875 19.1095C20.6171 19.0997 20.6467 19.0886 20.6762 19.0763C20.6848 19.0726 20.6935 19.0689 20.7009 19.0664C20.7181 19.0615 20.7366 19.0541 20.7538 19.0467C20.7538 19.0467 20.7538 19.0455 20.755 19.0455C20.7624 19.0418 20.7711 19.0381 20.7784 19.0356C20.8573 19.0011 20.9349 18.9654 21.0088 18.926C21.0433 18.9075 21.0777 18.8891 21.1122 18.8681C21.1295 18.8595 21.1455 18.8496 21.1615 18.8398C21.2071 18.8139 21.2514 18.7868 21.2945 18.7573H21.2957C21.3093 18.7462 21.3228 18.7363 21.3364 18.7265C21.3549 18.7142 21.3733 18.7018 21.3918 18.6883C21.4004 18.6809 21.4103 18.6735 21.4201 18.6661C21.4472 18.6464 21.4743 18.6255 21.5002 18.6033C21.5359 18.575 21.5704 18.5454 21.6037 18.5146C21.7502 18.3816 21.8796 18.2363 21.9892 18.0786C22.0027 18.0601 22.015 18.0429 22.0274 18.0244C22.0298 18.0207 22.0323 18.017 22.0335 18.0133C22.052 17.9862 22.0692 17.9591 22.0865 17.9308C22.1 17.9049 22.1148 17.8815 22.1284 17.8557C22.1776 17.7658 22.222 17.6722 22.2602 17.5761C22.2688 17.5564 22.2762 17.5367 22.2836 17.517C22.286 17.5108 22.2885 17.5046 22.2909 17.4973C22.2922 17.4923 22.2934 17.4874 22.2946 17.4825C22.2983 17.4726 22.3033 17.4628 22.307 17.4517C22.3119 17.4381 22.3168 17.4246 22.3205 17.411C22.3205 17.411 22.3209 17.4102 22.3217 17.4086C22.323 17.4012 22.3254 17.395 22.3267 17.3876C22.3353 17.3581 22.3439 17.3298 22.3525 17.3002C22.3525 17.2977 22.3538 17.294 22.355 17.2903C22.3648 17.2558 22.3735 17.2214 22.3809 17.1869C22.3833 17.1733 22.387 17.161 22.3882 17.1475C22.3919 17.129 22.3956 17.1105 22.3993 17.092C22.408 17.0465 22.4153 17.0009 22.4203 16.9541C22.4314 16.879 22.4375 16.8026 22.4412 16.725C22.4437 16.6782 22.4449 16.6302 22.4449 16.5834C22.4449 16.5304 22.4437 16.4774 22.44 16.4245C22.4412 16.4208 22.44 16.4183 22.44 16.4158C22.4375 16.3777 22.4351 16.3382 22.4314 16.3001C22.4277 16.2643 22.424 16.2286 22.419 16.1929C22.4117 16.1289 22.4018 16.0636 22.3882 15.9983C22.3833 15.97 22.3772 15.9404 22.371 15.9121C22.1912 15.0709 21.8943 14.306 21.4965 13.631C21.4965 13.631 21.4977 13.631 21.4965 13.6298C21.4078 13.4795 21.3142 13.3354 21.2169 13.1938C21.1184 13.0534 21.0149 12.9166 20.9078 12.7849C20.8006 12.6531 20.6873 12.5262 20.5715 12.4043C20.5136 12.3427 20.4533 12.2836 20.3929 12.2244C20.324 12.1579 20.2537 12.0927 20.1823 12.0286C20.1466 11.9966 20.1096 11.9646 20.0727 11.9338C19.9988 11.8722 19.9249 11.8118 19.8498 11.7527C19.7734 11.6948 19.697 11.6382 19.6182 11.5815H19.617C19.5 11.499 19.3793 11.4202 19.2561 11.3438H19.2549C19.1723 11.2945 19.0886 11.2465 19.0048 11.1985H19.0036C18.9186 11.1529 18.8324 11.1073 18.7462 11.0642H18.7449C18.6575 11.0211 18.5688 10.9804 18.4801 10.9398H18.4789C18.2991 10.861 18.1143 10.7895 17.9259 10.7255C17.8335 10.6947 17.7387 10.6639 17.6426 10.6356C16.9529 10.4336 16.2089 10.3301 15.4243 10.335C15.1226 10.3363 14.9501 10.2858 14.8565 10.101C14.8479 10.085 14.8405 10.0678 14.8331 10.0493C14.8122 9.99264 14.7962 9.92736 14.7851 9.84976C14.7814 9.82267 14.7777 9.79557 14.7752 9.76601C14.758 9.58249 14.7309 9.4002 14.6964 9.22161C14.6693 9.08736 14.6398 8.95433 14.604 8.82254C14.593 8.7782 14.5806 8.73509 14.5671 8.69075C14.5498 8.63163 14.5326 8.57374 14.5129 8.51586C14.4993 8.47275 14.4846 8.42964 14.4686 8.38653C14.4218 8.2572 14.3713 8.12911 14.3171 8.00225C14.1693 7.66353 13.9882 7.33221 13.7739 7.00705C13.6803 7.09573 13.6002 7.16347 13.5325 7.22752C13.5189 7.23984 13.5066 7.25339 13.4943 7.2657C13.4684 7.29034 13.445 7.3162 13.4241 7.34207C12.9647 7.90864 12.5718 8.49984 12.2602 9.12307C12.1826 9.27827 12.1099 9.43592 12.0421 9.59481C11.9695 9.76724 11.903 9.94214 11.8426 10.1207C11.7958 10.255 11.7539 10.3917 11.717 10.5297C11.7084 10.5604 11.6997 10.59 11.6924 10.6208C11.6726 10.6959 11.6542 10.7723 11.6357 10.8487C11.5125 11.3832 11.4472 11.9399 11.4472 12.5225C11.4472 12.5521 11.446 12.5841 11.4423 12.6161C11.4399 12.6518 11.4337 12.6876 11.4251 12.7233C11.4165 12.7664 11.4054 12.8095 11.3906 12.8514C11.377 12.8945 11.361 12.9364 11.3426 12.977C11.3426 12.9782 11.3413 12.9782 11.3413 12.9782C11.3118 13.0435 11.2773 13.1051 11.2379 13.1593C11.2379 13.1593 11.2375 13.1597 11.2366 13.1605C11.2169 13.1864 11.196 13.211 11.175 13.2344C11.175 13.2344 11.1746 13.2348 11.1738 13.2356C11.1627 13.2467 11.1516 13.2578 11.1406 13.2677C11.0728 13.328 11.0063 13.3884 10.9398 13.45C10.8745 13.5115 10.8092 13.5731 10.7464 13.6372C9.91381 14.4624 9.25116 15.4034 8.71169 16.4195C8.61808 16.5944 8.5294 16.7706 8.44318 16.9492C8.37298 17.097 8.304 17.246 8.23749 17.3963C8.18083 17.5256 8.12541 17.6549 8.07122 17.7867C8.05274 17.831 8.03427 17.8766 8.01579 17.9222C7.87045 18.2843 7.73866 18.6476 7.62042 19.0122C7.59332 19.0972 7.56623 19.181 7.54159 19.2659C7.51819 19.3386 7.49725 19.4113 7.47631 19.484C7.42335 19.6613 7.37532 19.8411 7.33098 20.0197C6.83584 21.9843 6.72869 24.0042 7.00089 26.0697C7.0169 26.1892 7.03291 26.3087 7.05139 26.4282C7.06617 26.5292 7.08218 26.6314 7.09942 26.7324C7.10188 26.7472 7.10435 26.7632 7.10681 26.7792H7.10804C7.12282 26.8728 7.13883 26.9664 7.15608 27.06C7.16839 27.1228 7.17948 27.1856 7.1918 27.2485C7.20411 27.3162 7.21766 27.3827 7.23121 27.4492C7.25338 27.5588 7.27678 27.6672 7.30142 27.7756C7.31989 27.8594 7.33837 27.9444 7.3593 28.0269C7.38024 28.1205 7.40365 28.2116 7.42705 28.304C7.464 28.4457 7.50095 28.5873 7.54036 28.7289C7.55884 28.7942 7.57731 28.8583 7.59702 28.9235C7.69802 29.2684 7.8101 29.6096 7.93204 29.9458C7.9616 30.0296 7.99239 30.1109 8.02441 30.1934C8.05028 30.2624 8.07737 30.3313 8.10447 30.3991C8.1291 30.4631 8.15497 30.5272 8.18207 30.59C8.27937 30.8277 8.3816 31.0617 8.49122 31.2933C8.51092 31.3376 8.53186 31.3807 8.5528 31.4251C8.75726 31.8488 8.98019 32.2651 9.22283 32.6715C9.25732 32.7307 9.29304 32.7898 9.32876 32.8477C9.3694 32.9142 9.41005 32.9795 9.45193 33.0447C9.63175 33.3293 9.82266 33.6101 10.0234 33.8847C10.0752 33.9562 10.1281 34.0276 10.1835 34.0991C10.1971 34.12 10.2131 34.1409 10.2303 34.1619C10.2747 34.221 10.3203 34.2801 10.3683 34.3392C10.4102 34.3947 10.4533 34.4501 10.4989 34.5043C10.5161 34.5264 10.5333 34.5486 10.5518 34.5708C10.6134 34.6472 10.6774 34.7247 10.7427 34.7999C10.7945 34.8627 10.8474 34.9243 10.9016 34.9859C10.9521 35.045 11.0038 35.1041 11.0568 35.162C11.1319 35.2457 11.2071 35.3295 11.2847 35.412C11.3721 35.5056 11.4608 35.598 11.5495 35.6892C11.7293 35.8727 11.9116 36.05 12.0976 36.2225C12.4695 36.5686 12.8551 36.8962 13.2517 37.2103C13.4746 37.3876 13.7 37.5601 13.9278 37.73C14.0806 37.8421 14.2333 37.9542 14.3885 38.0651C14.4649 38.1205 14.5425 38.1747 14.6201 38.2301C14.7752 38.3385 14.9317 38.4481 15.0881 38.5553C15.1928 38.6267 15.2975 38.6981 15.4022 38.7696C15.6128 38.9125 15.8234 39.0541 16.0353 39.1945C16.0833 39.2265 16.1289 39.2561 16.1732 39.2857C16.2175 39.3152 16.2606 39.3448 16.3025 39.3719C16.3863 39.4285 16.4651 39.4803 16.539 39.5271C16.6129 39.5751 16.6819 39.6194 16.7472 39.6588C16.8124 39.6995 16.8753 39.7352 16.9331 39.7672C16.9923 39.7993 17.0477 39.8276 17.1007 39.8522C17.1228 39.8621 17.1462 39.8719 17.1684 39.8818C17.1709 39.883 17.1721 39.883 17.1733 39.8843L17.1844 39.8879C17.1844 39.8879 17.193 39.8916 17.1967 39.8929C17.2164 39.9003 17.2349 39.9064 17.2534 39.9126C17.4123 39.9643 17.5539 39.9754 17.7042 39.9434C17.7116 39.9421 17.719 39.9409 17.7276 39.9384C17.7337 39.9372 17.7411 39.9347 17.7473 39.9335C17.7571 39.9298 17.7682 39.9274 17.7793 39.9249C17.7793 39.9249 17.7805 39.9237 17.7818 39.9237C17.799 39.9187 17.8163 39.9126 17.8335 39.9064C17.8495 39.9003 17.8668 39.8941 17.884 39.8867C17.9825 39.8461 18.0872 39.7906 18.2042 39.7167C18.3212 39.6441 18.4493 39.5542 18.5959 39.4482C18.6329 39.4224 18.671 39.394 18.7105 39.3657C18.7499 39.3374 18.7893 39.3078 18.8312 39.277C18.8447 39.2672 18.8583 39.2561 18.8718 39.2462C18.9001 39.2253 18.9297 39.2031 18.9593 39.181C19.1773 39.0184 19.3953 38.8546 19.6133 38.6895C19.8313 38.5245 20.0493 38.3594 20.2661 38.1919C20.3868 38.1008 20.5062 38.0084 20.6269 37.916C21.1677 37.501 21.7108 37.0785 22.2638 36.6499H22.2651C22.5484 36.4306 22.8341 36.2102 23.1236 35.9872C22.961 35.8591 22.7996 35.731 22.6395 35.6054ZM17.8729 14.9686C17.8741 14.9489 17.8754 14.9292 17.8778 14.9095C17.884 14.8491 17.8939 14.79 17.9074 14.7334C17.9111 14.7161 17.916 14.6977 17.9209 14.6804C17.9259 14.6619 17.932 14.6435 17.9382 14.6262C17.9444 14.6077 17.9505 14.5893 17.9579 14.572C17.9714 14.5363 17.9862 14.5018 18.0035 14.4686C18.0207 14.4341 18.0392 14.3996 18.0589 14.3676C18.0688 14.3516 18.0786 14.3368 18.0885 14.3232C18.1057 14.2974 18.1242 14.2727 18.1427 14.2493C18.155 14.2333 18.1685 14.2173 18.1821 14.2025C18.1944 14.1877 18.2079 14.1742 18.2215 14.1606C18.2363 14.1446 18.251 14.1286 18.2683 14.1138C18.2942 14.0892 18.3225 14.0658 18.3508 14.0436C18.3939 14.0104 18.4395 13.9808 18.4863 13.9549C18.6279 13.8774 18.7868 13.8318 18.9531 13.8281C18.99 13.8269 19.027 13.8281 19.0627 13.8318C19.1206 13.8367 19.1785 13.8466 19.2364 13.8601C19.2413 13.8601 19.2462 13.8613 19.2512 13.8638C19.2783 13.8712 19.3054 13.8786 19.3325 13.8872C19.3916 13.9057 19.4495 13.9279 19.5049 13.9562C19.5295 13.9673 19.5542 13.9796 19.5776 13.9931C19.601 14.0067 19.6256 14.0202 19.6478 14.035C19.7081 14.072 19.766 14.1138 19.8202 14.1594C19.8535 14.1865 19.8842 14.2148 19.9126 14.2432C19.931 14.2604 19.9471 14.2776 19.9643 14.2949C19.9754 14.3072 19.9865 14.3195 19.9976 14.3331C20.0111 14.3479 20.0234 14.3639 20.037 14.3799C20.0616 14.4119 20.0862 14.4452 20.1072 14.4784C20.1429 14.5326 20.1737 14.588 20.1996 14.6447C20.2057 14.6582 20.2119 14.673 20.218 14.6878C20.2451 14.7531 20.2648 14.8208 20.2772 14.8886C20.2796 14.9046 20.2821 14.9218 20.2845 14.9378C20.2882 14.9649 20.2895 14.992 20.2907 15.0191V15.0401C20.2907 15.0782 20.2882 15.1164 20.2833 15.1546C20.2808 15.1731 20.2772 15.1928 20.2735 15.2113C20.2698 15.231 20.2661 15.2507 20.2611 15.2692C20.2537 15.3012 20.2439 15.332 20.2328 15.3628C20.2279 15.3775 20.223 15.3911 20.2168 15.4059C20.2131 15.417 20.2082 15.428 20.2033 15.4379C20.1971 15.4539 20.1885 15.4711 20.1811 15.4872C20.1269 15.6005 20.053 15.7076 19.9668 15.8025C19.9545 15.816 19.9409 15.8308 19.9274 15.8443C19.9003 15.8727 19.8719 15.8998 19.8424 15.9244C19.8276 15.938 19.8128 15.9503 19.7968 15.9614C19.7364 16.0106 19.6724 16.0537 19.6047 16.0894C19.5714 16.1079 19.5369 16.1252 19.5024 16.1399C19.4581 16.1584 19.4113 16.1757 19.3645 16.188C19.3485 16.1929 19.3337 16.1966 19.3177 16.2003C19.2549 16.2151 19.192 16.2225 19.128 16.2237H19.1009C19.0763 16.2237 19.0504 16.2225 19.0258 16.2212C19.0098 16.2212 18.9937 16.22 18.9777 16.2175C18.9617 16.2163 18.9457 16.2151 18.9297 16.2126C18.8841 16.2077 18.8398 16.1991 18.7954 16.1892C18.7708 16.1831 18.7462 16.1769 18.7228 16.1695C18.7006 16.1633 18.6784 16.1572 18.6575 16.1486C18.5725 16.119 18.4924 16.0808 18.4185 16.0353C18.3939 16.0205 18.3705 16.0045 18.3483 15.9872C18.341 15.9823 18.3336 15.9761 18.3262 15.9712C18.304 15.954 18.2818 15.9355 18.2609 15.917C18.2363 15.8948 18.2129 15.8714 18.1895 15.848C18.1673 15.8246 18.1451 15.8 18.1254 15.7741C18.1008 15.7446 18.0798 15.715 18.0601 15.683C18.0195 15.6202 17.9838 15.5524 17.9567 15.481C17.9419 15.4453 17.9296 15.4083 17.9185 15.3714C17.9086 15.3344 17.8988 15.2962 17.8926 15.2568C17.8877 15.2322 17.884 15.2063 17.8815 15.1805C17.8766 15.146 17.8741 15.1103 17.8729 15.0745C17.8717 15.0401 17.8717 15.0043 17.8729 14.9699V14.9686Z" fill="#66C8CE"/>
<path d="M28.5257 39.4297L27.6882 38.9408L23.9845 40.4496L23.9931 40.5001V40.5025L25.4761 41.6406L28.4998 43.9611C28.4998 43.9611 28.4998 43.9599 28.5035 43.9586H28.5048C28.5048 43.9586 28.5121 43.9537 28.5183 43.95C28.5208 43.9488 28.5245 43.9463 28.5282 43.9438C28.5392 43.9365 28.5528 43.9291 28.57 43.9192C28.5725 43.918 28.575 43.9167 28.5774 43.9143C28.5984 43.902 28.6218 43.8884 28.6501 43.8699C28.6723 43.8576 28.6981 43.8416 28.7265 43.8231C28.7597 43.8034 28.7979 43.78 28.8398 43.7542C28.9211 43.7049 29.0171 43.6445 29.1255 43.5756C29.1612 43.5534 29.1994 43.53 29.2388 43.5041C29.2967 43.4672 29.3583 43.429 29.4224 43.3871C29.4544 43.3674 29.4876 43.3452 29.5209 43.3243C29.5271 43.3206 29.5332 43.3157 29.5394 43.312C29.5665 43.2947 29.5948 43.2763 29.6231 43.2566C29.6551 43.2369 29.6872 43.2159 29.7204 43.1938C29.7451 43.179 29.7697 43.163 29.7943 43.1457C29.8103 43.1359 29.8251 43.126 29.8411 43.1149C29.915 43.0669 29.9926 43.0152 30.0715 42.9634C30.1527 42.9092 30.2353 42.8538 30.3215 42.7947C30.3634 42.7664 30.4065 42.738 30.4496 42.7085C30.4927 42.6801 30.537 42.6493 30.5814 42.6198C30.6257 42.589 30.6701 42.5582 30.7156 42.5274C30.7612 42.4966 30.8068 42.4646 30.8536 42.4326C30.872 42.419 30.8918 42.4067 30.9115 42.3919C31.143 42.2318 31.3881 42.0594 31.6418 41.8759C31.7207 41.8204 31.7995 41.7638 31.8783 41.7059C31.9584 41.648 32.0384 41.5889 32.1197 41.5285L28.5257 39.4297Z" fill="#F7B0BD"/>
<path d="M32.1197 41.5285C32.0384 41.5889 31.9584 41.648 31.8783 41.7059C31.7995 41.7638 31.7207 41.8204 31.6418 41.8759C31.3881 42.0594 31.143 42.2318 30.9115 42.3919C30.8918 42.4067 30.872 42.419 30.8536 42.4326C30.8068 42.4646 30.7612 42.4966 30.7156 42.5274C30.6701 42.5582 30.6257 42.589 30.5814 42.6198C30.537 42.6493 30.4927 42.6801 30.4496 42.7085C30.4065 42.738 30.3634 42.7664 30.3215 42.7947C30.2353 42.8538 30.1527 42.9092 30.0715 42.9634C29.9926 43.0152 29.915 43.0669 29.8411 43.1149C29.8251 43.126 29.8103 43.1359 29.7943 43.1457C29.7697 43.163 29.7451 43.179 29.7204 43.1938C29.6872 43.2159 29.6551 43.2369 29.6231 43.2566C29.5948 43.2763 29.5665 43.2947 29.5394 43.312C29.5332 43.3157 29.5271 43.3206 29.5209 43.3231C29.4876 43.3452 29.4544 43.3674 29.4224 43.3871C29.3583 43.429 29.2967 43.4672 29.2388 43.5041C29.1994 43.53 29.1612 43.5534 29.1255 43.5756C29.0171 43.6445 28.9211 43.7049 28.8398 43.7542C28.7979 43.78 28.7597 43.8034 28.7265 43.8231C28.6981 43.8416 28.6723 43.8576 28.6501 43.8699C28.6218 43.8884 28.5984 43.902 28.5774 43.9143C28.575 43.9167 28.5725 43.918 28.57 43.9192C28.5528 43.9291 28.5392 43.9365 28.5282 43.9438C28.5245 43.9463 28.5208 43.9488 28.5183 43.95C28.5121 43.9537 28.5072 43.9562 28.5048 43.9586H28.5035L28.4998 43.9611L25.4761 41.6406L23.9931 40.5025V40.5001L23.9845 40.4496L27.6882 38.9408L28.5257 39.4297L32.1197 41.5285Z" fill="#F174A6"/>
<path d="M20.2648 38.1919C19.83 38.5257 19.3952 38.8558 18.958 39.181C17.5342 40.2414 17.2053 40.9657 15.6977 39.9618C14.8553 39.4014 13.8539 38.6809 13.0558 38.0675C10.5136 35.1829 6.55007 31.0309 6.57716 27.092L10.5518 24.7408C10.5518 24.7408 10.3375 31.2391 20.2648 38.1919Z" fill="url(#paint0_linear_14_360)"/>
<path d="M32.1505 15.029C32.1567 15.7975 31.5642 16.4318 30.8523 16.4195C30.2106 16.4084 29.6527 15.8209 29.6453 15.1472C29.6366 14.402 30.1909 13.7899 30.8893 13.7726C31.5999 13.7554 32.1443 14.2986 32.1505 15.029Z" fill="#39499F"/>
<path d="M20.2907 15.0191C20.3055 15.6029 19.7155 16.2138 19.128 16.2237C18.4296 16.2348 17.8963 15.747 17.8729 15.0733C17.8495 14.4131 18.3483 13.8392 18.9531 13.8268C19.5997 13.8145 20.2747 14.4168 20.2907 15.0191Z" fill="#39499F"/>
<path d="M28.0047 27.4849L27.5305 27.9603L25.0006 30.4902L22.4708 27.9603L21.9953 27.4849C21.297 26.7866 21.297 25.6534 21.9953 24.9551C22.3451 24.6053 22.8021 24.4304 23.2603 24.4304C23.7184 24.4304 24.1766 24.6053 24.5252 24.9551L25.0006 25.4305L25.4748 24.9551C25.8246 24.6053 26.2816 24.4304 26.7398 24.4304C27.1979 24.4304 27.6561 24.6053 28.0047 24.9551C28.7031 25.6534 28.7031 26.7866 28.0047 27.4849Z" fill="#3886C7"/>
<path d="M35.46 41.0285C35.7199 40.8585 35.9736 40.691 36.2249 40.5235C40.037 38.2264 42.7984 35.0006 44.3441 30.7489C45.5364 27.4701 45.8517 24.0843 45.2039 20.6343C44.5905 17.3691 43.1802 14.5055 40.909 12.0668C40.6405 11.7786 40.4409 11.4029 40.2895 11.0346C39.8497 9.9606 39.5763 8.79666 38.9987 7.80639C38.4629 6.88756 37.6734 6.09313 36.8986 5.34304C36.2249 4.68902 35.5758 4.84544 35.0573 5.63987C34.9243 5.84433 34.8011 6.0648 34.721 6.29389C34.439 7.10187 34.1779 7.91601 33.8773 8.82007C33.5571 8.60083 33.2603 8.35449 32.9265 8.17713C32.0631 7.72141 31.2157 7.20657 30.303 6.88387C29.5012 6.59935 29.0849 7.14006 29.3792 7.94927C29.4913 8.25719 29.6441 8.5491 29.7783 8.84839C30.0012 9.34353 29.9163 9.64652 29.4125 10.0012C27.0341 11.6813 25.7039 13.9709 25.7704 16.9356C25.8185 19.0307 27.2866 20.8092 29.2906 21.3549C31.6061 21.9855 32.844 23.849 32.5496 26.2249C32.3636 27.73 31.6332 28.9543 30.5321 29.9236C28.8398 31.4127 27.0822 32.8292 25.3319 34.2505C25.2162 34.3454 24.8639 34.2986 24.7223 34.1877C23.2824 33.0657 21.8426 31.9399 20.4459 30.7661C19.346 29.8399 18.3138 28.8385 17.767 27.4504C16.7077 24.7654 17.9948 22.0976 20.7082 21.3795C22.7516 20.84 24.2358 18.9592 24.2321 16.8321C24.2271 14.2087 23.1309 12.0816 21.1676 10.3794C20.7907 10.053 20.1651 9.80171 20.0739 9.4162C19.9766 9.00359 20.4126 8.48382 20.5432 7.99115C20.6195 7.70047 20.6774 7.24475 20.521 7.09202C20.3215 6.89865 19.8522 6.8075 19.5788 6.90234C18.8311 7.16223 18.1106 7.51572 17.4086 7.88645C16.9479 8.13033 16.539 8.47027 16.0414 8.81144C15.9576 8.54047 15.9096 8.3471 15.8406 8.16235C15.5352 7.33836 15.2913 6.48357 14.8984 5.70515C14.4193 4.75306 13.8502 4.66192 13.0275 5.34796C11.3549 6.73976 10.2143 8.48998 9.73766 10.622C9.60341 11.2231 9.37432 11.7047 8.9654 12.1653C4.88485 16.7619 3.75047 22.1776 4.87869 28.0663C5.54256 31.531 7.076 34.4809 9.35584 36.9257C9.39772 36.9713 9.44083 37.0169 9.48394 37.0625C9.4864 37.0662 9.48886 37.0686 9.49256 37.0711C10.4508 38.0786 11.5384 38.9987 12.7442 39.8325C13.2837 40.2057 13.8318 40.5654 14.4033 40.941C14.6767 41.1208 14.9551 41.3031 15.2408 41.4928C15.2285 41.4953 15.2162 41.4965 15.2051 41.4977C15.0216 41.5273 14.9132 41.5507 14.8048 41.5606C13.6064 41.664 12.4942 41.4017 11.4275 40.8412C11.3191 40.7846 11.2169 40.7427 11.1147 40.7144C10.6577 40.5875 10.2882 40.7624 9.95813 41.1763C9.61573 41.6061 9.60095 42.1641 10.0628 42.6272C10.4262 42.9918 10.8881 43.3317 11.3696 43.4918C13.0028 44.0338 14.7223 44.1619 16.3296 43.5743C16.422 43.5411 16.5131 43.5066 16.6043 43.4697C16.9159 43.3477 17.225 43.211 17.5293 43.0632C18.3877 42.6457 19.2117 42.1345 19.968 41.5716C20.8819 40.8905 21.7896 40.1995 22.69 39.5C24.0572 38.4419 25.4108 37.3667 26.7607 36.2865C27.2755 35.8739 27.7904 35.4613 28.304 35.0487C29.7414 33.8946 31.196 32.7393 32.4843 31.4288C33.599 30.2932 34.423 29.0134 34.7974 27.5527C34.8134 27.4911 34.8282 27.4295 34.8417 27.3667C34.8491 27.3334 34.8565 27.3002 34.8639 27.2682C34.8738 27.2226 34.8824 27.1758 34.891 27.129C34.8935 27.1191 34.8959 27.108 34.8972 27.0969C34.9206 26.9725 34.9415 26.8469 34.9575 26.7201C34.9624 26.6868 34.9661 26.6535 34.9698 26.6203C34.9723 26.5981 34.9748 26.5759 34.9772 26.5525C34.9834 26.502 34.9883 26.4515 34.992 26.3998C35.0314 25.9478 35.029 25.4798 34.9821 24.9945C34.6964 22.0532 32.6099 19.6847 29.8485 19.2561C29.8239 19.2524 29.798 19.2475 29.7734 19.2438C29.7537 19.2401 29.7352 19.2351 29.7155 19.2314C29.681 19.2253 29.6453 19.2167 29.6108 19.208C29.5812 19.2007 29.5504 19.1933 29.5221 19.1846C29.5098 19.1809 29.4975 19.1773 29.4852 19.1736C29.4507 19.1637 29.4162 19.1526 29.3829 19.1403C29.3411 19.1255 29.3016 19.1107 29.261 19.0947C29.2228 19.0799 29.1846 19.0639 29.1465 19.0467C29.1428 19.0455 29.1403 19.043 29.1366 19.0418C29.1095 19.0307 29.0836 19.0171 29.0565 19.0036C29.0085 18.9802 28.9617 18.9543 28.9149 18.9272C28.8964 18.9174 28.878 18.9063 28.8595 18.894C28.8435 18.8853 28.8275 18.8743 28.8114 18.8644C28.7597 18.8324 28.7092 18.7979 28.6612 18.7622C28.6304 18.7388 28.5996 18.7154 28.57 18.692C28.5208 18.6526 28.474 18.6119 28.4284 18.57C28.4062 18.5491 28.384 18.5282 28.3631 18.5072C28.2535 18.3988 28.1537 18.2831 28.0663 18.1587C28.0466 18.1328 28.0293 18.1069 28.0121 18.0798C27.9419 17.9739 27.8803 17.863 27.8273 17.7473C27.8125 17.7189 27.8002 17.6906 27.7879 17.6611C27.7756 17.6315 27.7645 17.6019 27.7534 17.5724C27.7288 17.5133 27.7091 17.4517 27.6918 17.3901C27.6832 17.3593 27.6746 17.3285 27.6672 17.2977C27.5859 16.9824 27.5687 16.6474 27.6241 16.3062C28.0256 13.8502 29.2844 11.9978 31.5248 11.0186C31.6615 10.9583 31.8007 10.9016 31.9448 10.8486C32.9215 10.4878 34.0214 10.4545 35.1484 10.2636C35.1644 10.2611 35.1817 10.2574 35.1977 10.255C35.3246 9.29549 35.5647 8.21901 36.1744 7.16592C36.3961 7.39871 36.5612 7.54774 36.6966 7.72018C37.7793 9.10458 38.3594 10.6664 38.4136 12.4338C38.4235 12.7343 38.6107 13.0694 38.8077 13.3132C39.3103 13.9328 39.9273 14.4648 40.3868 15.1115C41.7786 17.0674 42.5533 19.1908 42.8587 21.4374C42.8797 21.5901 42.8982 21.7441 42.9142 21.898C42.9203 21.9535 42.9265 22.0077 42.9314 22.0631C42.9757 22.52 43.0016 22.9831 43.0102 23.4512C43.0127 23.5657 43.0139 23.6827 43.0139 23.7985C43.0139 24.2062 43.0004 24.6176 42.9757 25.0327C42.9573 25.3283 42.9339 25.6202 42.9031 25.9108C42.8981 25.9638 42.8932 26.0155 42.8871 26.0673C42.8772 26.1584 42.8661 26.2508 42.8538 26.3419C42.823 26.5944 42.7861 26.8457 42.7442 27.0945C42.7257 27.2066 42.706 27.3186 42.6851 27.4295C42.5816 27.9862 42.4523 28.5331 42.2959 29.0689C42.238 29.2672 42.1764 29.4642 42.1111 29.6601C42.0409 29.8682 41.967 30.0764 41.8882 30.2821C41.7699 30.5912 41.6418 30.8954 41.5027 31.1972C41.4706 31.2686 41.4374 31.3376 41.4029 31.4078C41.3462 31.5273 41.2883 31.6443 41.228 31.7625C41.2034 31.8106 41.1787 31.8586 41.1529 31.9067C41.1492 31.9165 41.143 31.9264 41.1381 31.9362C41.1258 31.9584 41.1134 31.9806 41.1011 32.004C41.0827 32.0397 41.0642 32.0742 41.0432 32.1099C41.026 32.1407 41.01 32.1727 40.9915 32.2047C40.9767 32.2318 40.9619 32.2601 40.9447 32.2872C40.9201 32.3328 40.8942 32.3796 40.8671 32.4252C40.8511 32.4523 40.8351 32.4806 40.8178 32.5089C40.7735 32.5841 40.7292 32.6592 40.6836 32.7331C40.6799 32.7393 40.6762 32.7454 40.6725 32.7516C40.6331 32.8156 40.5937 32.8784 40.5543 32.9413C40.5235 32.9893 40.4927 33.0386 40.4607 33.0866C40.436 33.1248 40.4102 33.1642 40.3843 33.2024C40.3449 33.2627 40.3055 33.3218 40.2636 33.381C40.2279 33.4352 40.1897 33.4894 40.1515 33.5423C40.0973 33.6211 40.0407 33.7 39.9828 33.7776C39.9212 33.8626 39.8584 33.9463 39.7943 34.0301C39.782 34.0473 39.7685 34.0646 39.7537 34.0818C39.713 34.136 39.6712 34.189 39.6268 34.2431C39.5837 34.2998 39.5369 34.3577 39.4901 34.4144C39.3423 34.5954 39.1896 34.774 39.0319 34.9514C37.7904 36.3395 36.3801 37.512 34.8799 38.57C34.8294 38.6058 34.7777 38.6415 34.726 38.6772C34.6373 38.7363 34.5498 38.7967 34.4612 38.857C34.2505 38.9987 34.0399 39.1403 33.8281 39.2807C33.78 39.3115 33.7345 39.3435 33.6901 39.3731C33.6679 39.3879 33.6458 39.4026 33.6248 39.4174C33.6027 39.431 33.5817 39.4458 33.5608 39.4593C33.5189 39.4876 33.4783 39.5135 33.4389 39.5394C33.3231 39.6145 33.2061 39.6884 33.0891 39.7623C33.0841 39.766 33.0792 39.7685 33.0755 39.7709C33.025 39.8017 32.9757 39.83 32.9302 39.8547C32.871 39.8867 32.8156 39.915 32.7627 39.9397C32.7405 39.9495 32.7171 39.9594 32.6949 39.9692C32.6925 39.9705 32.6912 39.9705 32.69 39.9717C32.6863 39.9729 32.6826 39.9741 32.6789 39.9754C32.6752 39.9766 32.6703 39.9791 32.6666 39.9803C32.6469 39.9877 32.6284 39.9939 32.6099 40C32.4511 40.0517 32.3094 40.0628 32.1591 40.0308C32.1518 40.0296 32.1444 40.0283 32.1357 40.0259C32.1185 40.0222 32.1013 40.0185 32.084 40.0123C32.084 40.0123 32.0828 40.0123 32.0815 40.0123C32.0742 40.0099 32.0668 40.0074 32.0594 40.0049C32.0458 40 32.031 39.9951 32.0175 39.9902C32.0052 39.9852 31.9929 39.9815 31.9793 39.9754C31.9362 39.9581 31.8919 39.9372 31.8463 39.9126C31.7071 39.8177 31.5679 39.7204 31.43 39.6207C31.2563 39.495 31.0839 39.3682 30.9127 39.2388C30.569 38.9814 30.2266 38.7178 29.8781 38.458C29.8768 38.4567 29.8744 38.4555 29.8731 38.4543L28.5257 39.431L28.0466 39.7783L27.6327 39.9434C27.6623 39.9668 27.6931 39.9902 27.7226 40.0136L27.5034 40.1724C28.6821 40.9373 29.7857 41.696 30.9115 42.3932C31.1689 42.5545 31.4263 42.7109 31.6874 42.8637C32.1739 43.1494 32.674 43.3748 33.1827 43.5448C33.2516 43.5682 33.3194 43.5891 33.3884 43.6101C33.3908 43.6101 33.3933 43.6113 33.3958 43.6125C34.8171 44.0424 36.3099 44.0448 37.8199 43.7074C38.4789 43.5596 39.128 43.2147 39.6909 42.8218C39.729 42.7873 39.7648 42.7516 39.8005 42.7159C40.2624 42.2528 40.2476 41.6948 39.9052 41.2649C39.5751 40.8511 39.2056 40.6762 38.7486 40.8031C38.6464 40.8314 38.5442 40.8733 38.4358 40.9299C37.3691 41.4903 36.2569 41.7527 35.0585 41.6492C35.0043 41.6443 34.9501 41.6357 34.8861 41.6246H34.8836C34.8208 41.6135 34.7494 41.6012 34.6582 41.5864C34.6496 41.5852 34.641 41.584 34.6311 41.5827C34.6324 41.5803 34.6336 41.5766 34.6348 41.5729C34.9169 41.3869 35.1903 41.2071 35.46 41.0297V41.0285ZM22.2638 36.6498C21.7108 37.0785 21.1676 37.5009 20.6269 37.916C20.5062 38.0084 20.3868 38.1008 20.2661 38.1919C20.048 38.3594 19.8313 38.5245 19.6133 38.6895C19.3953 38.8545 19.1772 39.0184 18.9592 39.1809C18.9297 39.2031 18.9001 39.2253 18.8718 39.2462C18.8582 39.2561 18.8447 39.2672 18.8311 39.277C18.7893 39.3078 18.7499 39.3374 18.7104 39.3657C18.671 39.394 18.6328 39.4224 18.5959 39.4482C18.4493 39.5541 18.3212 39.6441 18.2042 39.7167C18.0872 39.7906 17.9825 39.8461 17.884 39.8867C17.8704 39.8929 17.8581 39.8965 17.8458 39.9015C17.8323 39.9064 17.8175 39.9113 17.8039 39.9163C17.7965 39.9187 17.7891 39.9212 17.7818 39.9236C17.7805 39.9236 17.7793 39.9249 17.7793 39.9249C17.7621 39.931 17.7448 39.9347 17.7276 39.9384C17.7189 39.9409 17.7116 39.9421 17.7042 39.9434C17.5539 39.9754 17.4123 39.9643 17.2534 39.9126C17.2349 39.9064 17.2164 39.9002 17.1967 39.8929C17.193 39.8916 17.1881 39.8892 17.1844 39.8879L17.1733 39.8842C17.1733 39.8842 17.1708 39.883 17.1684 39.8818C17.1462 39.8719 17.1228 39.8621 17.1006 39.8522C17.0477 39.8276 16.9922 39.7992 16.9331 39.7672C16.8752 39.7352 16.8124 39.6995 16.7471 39.6588C16.6819 39.6194 16.6129 39.5751 16.539 39.5271C16.4651 39.479 16.3863 39.4273 16.3025 39.3719C16.2606 39.3448 16.2175 39.3152 16.1732 39.2856C16.1288 39.2561 16.0833 39.2241 16.0352 39.1933C15.8234 39.0529 15.6128 38.9112 15.4022 38.7696C15.2975 38.6981 15.1928 38.6267 15.0881 38.5553C14.9317 38.4481 14.7752 38.3385 14.62 38.2301C14.5424 38.1747 14.4648 38.1205 14.3885 38.065C14.2333 37.9542 14.0806 37.8421 13.9278 37.73C13.7 37.5601 13.4746 37.3876 13.2516 37.2103C12.855 36.8949 12.4695 36.5673 12.0976 36.2225C11.9116 36.0488 11.7293 35.8714 11.5495 35.6891C11.4608 35.598 11.3721 35.5056 11.2847 35.412C11.2071 35.3295 11.1319 35.2457 11.0568 35.162C11.0038 35.1041 10.9521 35.045 10.9016 34.9858C10.8474 34.9243 10.7944 34.8627 10.7427 34.7999C10.6774 34.7247 10.6134 34.6471 10.5518 34.5708C10.5333 34.5486 10.5161 34.5264 10.4988 34.5043C10.4533 34.4501 10.4102 34.3946 10.3683 34.3392C10.3202 34.2801 10.2747 34.221 10.2303 34.1619C10.2131 34.1409 10.1971 34.12 10.1835 34.099C10.1281 34.0276 10.0751 33.9562 10.0234 33.8847C9.82265 33.6101 9.63174 33.3292 9.45191 33.0447C9.41004 32.9794 9.36939 32.9142 9.32874 32.8477C9.29303 32.7898 9.25731 32.7306 9.22282 32.6715C8.98018 32.2651 8.75725 31.8488 8.55279 31.4251C8.53185 31.3807 8.51091 31.3376 8.4912 31.2933C8.38158 31.0617 8.27935 30.8277 8.18205 30.59C8.15496 30.5272 8.12909 30.4631 8.10446 30.3991C8.07736 30.3313 8.05026 30.2624 8.0244 30.1934C7.99237 30.1109 7.96158 30.0296 7.93202 29.9458C7.81009 29.6096 7.698 29.2684 7.597 28.9235C7.5773 28.8582 7.55882 28.7942 7.54035 28.7289C7.50093 28.5873 7.46398 28.4456 7.42703 28.304C7.40363 28.2116 7.38023 28.1205 7.35929 28.0269C7.33835 27.9443 7.31988 27.8594 7.3014 27.7756C7.27677 27.6672 7.25337 27.5588 7.2312 27.4492C7.21765 27.3827 7.2041 27.3162 7.19178 27.2484C7.17947 27.1856 7.16838 27.1228 7.15606 27.06C7.13882 26.9664 7.12281 26.8728 7.1068 26.7792C7.10433 26.7632 7.10187 26.7471 7.09941 26.7324C7.08216 26.6314 7.06615 26.5291 7.05137 26.4281C7.0329 26.3087 7.01688 26.1892 7.00087 26.0697C6.72867 24.0042 6.83583 21.9842 7.33096 20.0197C7.3753 19.8411 7.42457 19.6613 7.4763 19.4839C7.49724 19.4113 7.51818 19.3386 7.54158 19.2659C7.56621 19.1809 7.59331 19.0972 7.62041 19.0122C7.73865 18.6476 7.87044 18.2843 8.01578 17.9222C8.03425 17.8766 8.05273 17.831 8.0712 17.7867C8.12539 17.6549 8.18082 17.5256 8.23748 17.3962C8.30399 17.246 8.37296 17.0969 8.44317 16.9491C8.52939 16.7706 8.61807 16.5944 8.71167 16.4195C9.25115 15.4034 9.91379 14.4624 10.7464 13.6372C10.8092 13.5731 10.8745 13.5115 10.9398 13.4499C11.0063 13.3884 11.0728 13.3268 11.1405 13.2664C11.1516 13.2566 11.1627 13.2467 11.1738 13.2356C11.1738 13.2356 11.1742 13.2352 11.175 13.2344C11.196 13.211 11.2169 13.1864 11.2366 13.1605C11.2366 13.1605 11.237 13.1601 11.2378 13.1593C11.2773 13.1051 11.3117 13.0435 11.3413 12.9782C11.3413 12.9782 11.3425 12.9782 11.3425 12.977C11.361 12.9363 11.377 12.8945 11.3906 12.8513C11.4054 12.8095 11.4164 12.7664 11.4251 12.7233C11.4337 12.6875 11.4398 12.6518 11.4423 12.6161C11.4472 12.5841 11.4485 12.5521 11.4485 12.5213C11.4485 11.9399 11.5137 11.3832 11.6357 10.8486C11.6542 10.7723 11.6726 10.6959 11.6923 10.6208C11.6997 10.59 11.7083 10.5604 11.717 10.5296C11.7552 10.3917 11.797 10.2562 11.8426 10.1207C11.903 9.94212 11.9695 9.76723 12.0421 9.59479C12.1099 9.4359 12.1825 9.27825 12.2601 9.12306C12.5718 8.49983 12.9647 7.90862 13.4241 7.34205C13.445 7.31619 13.4684 7.29032 13.4943 7.26569C13.5066 7.25337 13.5189 7.23982 13.5325 7.2275C13.6002 7.16346 13.6803 7.09572 13.7739 7.00703C13.9882 7.3322 14.1692 7.66352 14.317 8.00223C14.3725 8.12909 14.423 8.25719 14.4685 8.38651C14.4846 8.42962 14.4993 8.47273 14.5129 8.51584C14.5326 8.57373 14.5498 8.63162 14.5671 8.69074C14.5806 8.73508 14.5929 8.77819 14.604 8.82253C14.6397 8.95432 14.6705 9.08734 14.6964 9.22159C14.7309 9.40019 14.758 9.58247 14.7752 9.766C14.7777 9.79556 14.7814 9.82265 14.7851 9.84975C14.7974 9.92734 14.8122 9.99262 14.8331 10.0493C14.8405 10.0678 14.8479 10.085 14.8565 10.101C14.9501 10.2858 15.1226 10.3363 15.4243 10.335C16.2089 10.3301 16.9528 10.4336 17.6426 10.6356C17.7374 10.6639 17.8323 10.6934 17.9259 10.7255C18.1143 10.7895 18.2991 10.861 18.4789 10.9398H18.4801C18.57 10.9792 18.6575 11.0198 18.7449 11.0642H18.7462C18.8324 11.1073 18.9186 11.1516 19.0036 11.1984H19.0048C19.0886 11.2452 19.1723 11.2933 19.2548 11.3438H19.2561C19.3792 11.4189 19.4999 11.4977 19.617 11.5815H19.6182C19.697 11.6357 19.7734 11.6936 19.8497 11.7527C19.9249 11.8106 20 11.8709 20.0727 11.9337C20.1096 11.9645 20.1466 11.9966 20.1823 12.0286C20.2537 12.0914 20.3239 12.1567 20.3929 12.2244C20.4533 12.2835 20.5136 12.3427 20.5715 12.4043C20.6885 12.5262 20.8006 12.653 20.9078 12.7848C21.0161 12.9166 21.1184 13.0533 21.2169 13.1938C21.3154 13.3342 21.409 13.4807 21.4965 13.6298C21.8956 14.306 22.1924 15.0708 22.3722 15.9121C22.3784 15.9404 22.3845 15.97 22.3882 15.9983C22.4018 16.0636 22.4116 16.1288 22.419 16.1929C22.424 16.2286 22.4289 16.2643 22.4313 16.3C22.435 16.3382 22.4375 16.3776 22.44 16.4158C22.44 16.4183 22.4412 16.4208 22.44 16.4244C22.4437 16.4774 22.4449 16.5304 22.4449 16.5833C22.4449 16.6301 22.4437 16.6782 22.4412 16.725C22.4375 16.8026 22.4313 16.8789 22.4203 16.9541C22.4153 17.0009 22.4079 17.0464 22.3993 17.092C22.3956 17.1105 22.3919 17.129 22.3882 17.1474C22.387 17.161 22.3833 17.1733 22.3808 17.1869C22.3735 17.2213 22.3648 17.2558 22.355 17.2903C22.3537 17.294 22.3525 17.2977 22.3525 17.3002C22.3439 17.3371 22.3328 17.3728 22.3217 17.4086C22.3217 17.4086 22.3213 17.4094 22.3205 17.411C22.3168 17.4246 22.3119 17.4381 22.3069 17.4517C22.302 17.4677 22.2971 17.4825 22.2909 17.4972C22.2885 17.5046 22.286 17.5108 22.2835 17.5169C22.2762 17.5367 22.2688 17.5564 22.2601 17.5761C22.222 17.6721 22.1776 17.7657 22.1284 17.8557C22.1148 17.8815 22.1 17.9049 22.0865 17.9308C22.0692 17.9591 22.052 17.9862 22.0335 18.0133C22.0335 18.017 22.0298 18.0207 22.0274 18.0244C22.015 18.0429 22.0027 18.0601 21.9892 18.0786C21.8796 18.2362 21.7502 18.3816 21.6037 18.5146C21.5704 18.5454 21.5359 18.575 21.5002 18.6033C21.4743 18.6255 21.4472 18.6464 21.4201 18.6661C21.4103 18.6735 21.4004 18.6809 21.3918 18.6883C21.3733 18.7018 21.3549 18.7141 21.3364 18.7265C21.3228 18.7363 21.3093 18.7462 21.2957 18.756H21.2945C21.2797 18.7659 21.2649 18.7757 21.2502 18.7843C21.2218 18.8041 21.1923 18.8225 21.1615 18.8398C21.1455 18.8496 21.1295 18.8595 21.1122 18.8681C21.0777 18.889 21.0432 18.9075 21.0088 18.926C20.9349 18.9654 20.8573 19.0011 20.7784 19.0356C20.771 19.0381 20.7624 19.0418 20.755 19.0455C20.7538 19.0455 20.7538 19.0467 20.7538 19.0467C20.7378 19.0516 20.723 19.0578 20.707 19.0639C20.707 19.0652 20.7033 19.0652 20.7008 19.0664C20.6934 19.0689 20.6848 19.0726 20.6762 19.0763C20.6651 19.0799 20.654 19.0849 20.6417 19.0886C20.6245 19.096 20.606 19.1033 20.5875 19.1095C20.5826 19.1107 20.5764 19.1132 20.5715 19.1144C20.5013 19.1391 20.4286 19.1625 20.3547 19.1822C20.2808 19.2031 20.2057 19.2228 20.1281 19.2388C20.101 19.245 20.0739 19.2524 20.0468 19.2585C19.9507 19.2807 19.8559 19.3041 19.7623 19.33C19.713 19.3435 19.6638 19.3558 19.6145 19.3706C19.5147 19.4002 19.415 19.4322 19.3164 19.4655C19.2709 19.4815 19.2265 19.4963 19.1809 19.5123C19.0799 19.5492 18.9789 19.5899 18.8804 19.6305C18.8361 19.649 18.793 19.6675 18.7511 19.6859C18.6513 19.7303 18.5528 19.7758 18.4555 19.8251C18.4382 19.8337 18.4198 19.8411 18.4025 19.8497C18.384 19.8596 18.3656 19.8695 18.3483 19.8793C18.3299 19.8892 18.3114 19.899 18.2929 19.9076C18.2855 19.9126 18.2781 19.9163 18.2695 19.9212C18.2338 19.9409 18.1968 19.9594 18.1611 19.9791C18.1217 20.0012 18.0823 20.0246 18.0429 20.0468C17.9936 20.0764 17.9431 20.1072 17.8951 20.1392C17.8667 20.1552 17.8396 20.1724 17.8125 20.1897C17.7744 20.2143 17.7374 20.239 17.6992 20.2648C17.6845 20.2747 17.6697 20.2858 17.6549 20.2968C17.6155 20.3227 17.5761 20.351 17.5379 20.3794C17.5379 20.3794 17.5354 20.3806 17.5342 20.3818C17.4972 20.4089 17.4591 20.436 17.4233 20.4644C17.4209 20.4656 17.4184 20.4668 17.4172 20.4693C17.3925 20.489 17.3667 20.5075 17.342 20.5272C17.3322 20.5358 17.3211 20.5444 17.3113 20.5518C17.294 20.5654 17.278 20.5789 17.262 20.5925C17.246 20.606 17.23 20.6183 17.214 20.6306C17.1856 20.6528 17.1573 20.6774 17.129 20.7021C17.1043 20.7242 17.0809 20.7452 17.0563 20.7674C17.0267 20.7932 16.9959 20.8191 16.9664 20.8462C16.9602 20.8523 16.9541 20.8585 16.9479 20.8647C16.9319 20.8782 16.9184 20.893 16.9036 20.9065C16.8592 20.9472 16.8161 20.9878 16.7742 21.0297C16.7114 21.0937 16.6511 21.1566 16.592 21.2218L16.5476 21.2711C16.4442 21.3857 16.3456 21.5051 16.252 21.6271C16.2249 21.6628 16.199 21.6973 16.1732 21.7318V21.7342C16.1609 21.7502 16.1498 21.765 16.1375 21.781C16.1239 21.8007 16.1104 21.8192 16.0956 21.8389V21.8414C16.071 21.8771 16.0463 21.9128 16.0217 21.9485H16.0205C16.0205 21.9485 16.0205 21.951 16.0217 21.951C15.9971 21.9867 15.9724 22.0224 15.949 22.0594V22.0618C15.9256 22.0976 15.9022 22.1345 15.8788 22.1715V22.1739C15.8566 22.2109 15.8345 22.2478 15.8123 22.286C15.8123 22.286 15.8111 22.286 15.8111 22.2872C15.8111 22.2872 15.8111 22.2885 15.8123 22.2885C15.8012 22.3069 15.7889 22.3254 15.779 22.3451C15.768 22.3636 15.7569 22.3821 15.747 22.4018V22.4042C15.7384 22.419 15.7285 22.435 15.7212 22.4511C15.7088 22.4732 15.6965 22.4954 15.6842 22.5188V22.5213C15.6633 22.5594 15.6436 22.5989 15.6239 22.637V22.6395C15.6041 22.6789 15.5857 22.7183 15.566 22.7577V22.7602C15.5475 22.7996 15.529 22.839 15.5118 22.8797V22.8821C15.4933 22.9216 15.4761 22.9622 15.4588 23.0028V23.0053C15.4416 23.046 15.4256 23.0866 15.4095 23.1272V23.1297C15.4009 23.1506 15.3923 23.1716 15.3849 23.1925C15.3775 23.2135 15.3701 23.2344 15.3615 23.2553C15.3467 23.2972 15.3319 23.3391 15.3172 23.381C15.2888 23.4672 15.2617 23.5546 15.2359 23.6421C15.2236 23.6852 15.2125 23.7283 15.2002 23.7714V23.7739C15.1952 23.7911 15.1915 23.8071 15.1878 23.8231C15.1805 23.8502 15.1731 23.8773 15.1669 23.9044C15.1669 23.9057 15.1669 23.9069 15.1669 23.9069C15.1558 23.9512 15.146 23.9943 15.1349 24.0387C15.1263 24.0843 15.1164 24.1311 15.1078 24.1766C15.0979 24.2271 15.0881 24.2789 15.0795 24.3306C15.0708 24.3823 15.0622 24.4341 15.0548 24.4858C15.0474 24.5375 15.04 24.5905 15.0339 24.6434C15.029 24.6878 15.024 24.7321 15.0191 24.7777C15.0129 24.8417 15.0068 24.907 15.0031 24.9711C15.0006 25.0056 14.9982 25.04 14.9957 25.0758C14.9945 25.1016 14.9932 25.1287 14.992 25.1546C14.9883 25.2507 14.9858 25.3467 14.9858 25.444C14.9858 25.5056 14.9871 25.5672 14.9883 25.63C14.9895 25.683 14.992 25.7359 14.9945 25.7901C14.9957 25.8012 14.9957 25.8123 14.9957 25.8234C15.0031 25.9441 15.0129 26.0673 15.0253 26.1917C15.0253 26.1929 15.0265 26.1941 15.0265 26.1954C15.0782 26.6954 15.1841 27.209 15.348 27.7337C15.7261 28.9432 16.3493 29.968 17.1228 30.8807C17.3371 31.1344 17.5637 31.3783 17.799 31.616C18.2239 32.0434 18.6772 32.4474 19.1502 32.8378C19.6243 33.2282 20.1035 33.6125 20.5912 33.9993C20.8351 34.1914 21.0814 34.3848 21.3315 34.5819C21.7576 34.9156 22.1936 35.2556 22.6383 35.6054C22.7984 35.731 22.9597 35.8591 23.1223 35.9872C22.8329 36.2101 22.5471 36.4306 22.2638 36.6498Z" fill="#3B4CA0"/>
<path d="M22.3993 17.092C22.201 18.1685 21.3622 18.974 20.1281 19.2388C16.8494 19.9458 14.6595 22.7282 15.0265 26.1954C14.6003 24.8344 14.2407 23.344 14.4538 21.9103C14.9415 18.6193 18.7548 16.6104 21.813 16.9947C21.8623 17.0009 22.4006 17.0822 22.3993 17.092Z" fill="#06AFE2"/>
<path d="M34.7962 27.5527C34.9994 26.7558 35.0696 25.9059 34.9809 24.9945C34.6952 22.0532 32.6087 19.6847 29.8473 19.2561C28.7696 19.0886 27.9135 18.2917 27.666 17.2977C27.6574 17.2645 28.692 17.0871 28.7671 17.0772C30.3424 16.8777 32.0335 17.2053 33.2775 18.2387C33.9377 18.788 34.471 19.4827 34.9095 20.2168C35.2913 20.8573 35.6202 21.5384 35.7827 22.27C36.151 23.9205 35.5734 25.5684 34.9797 27.092C34.9218 27.2423 34.8368 27.3975 34.7962 27.5527Z" fill="#F174A6"/>
<path d="M42.9745 25.0326C42.7491 28.7733 41.5605 32.121 39.0307 34.9514C37.1905 37.0095 34.9784 38.5934 32.653 40.0345C32.488 40.1367 32.1271 40.1035 31.9559 39.9877C31.2452 39.5098 30.574 38.9765 29.8768 38.4567C41.5039 30.1564 39.1846 22.2872 39.1846 22.2872L42.8575 21.4374C43.0164 22.6038 43.0484 23.8047 42.9745 25.0326Z" fill="url(#paint1_linear_14_360)"/>
<path d="M17.0181 39.8128C17.1019 39.8547 17.1795 39.8879 17.2521 39.9113C17.1782 39.8879 17.1006 39.8547 17.0181 39.8128Z" fill="url(#paint2_linear_14_360)"/>
<path d="M17.7029 39.9421C17.7584 39.931 17.8163 39.9126 17.8766 39.8892C17.8163 39.9138 17.7596 39.9323 17.7029 39.9421Z" fill="url(#paint3_linear_14_360)"/>
<path d="M29.8731 38.453L28.5257 39.4297L27.5034 40.1712L25.4773 41.6394H25.4761L21.3315 44.6434L20.7008 45.1004C20.7008 45.1004 20.2032 44.7925 19.4088 44.2838C18.8903 43.9525 18.2461 43.5349 17.5293 43.0632C18.3877 42.6457 19.2117 42.1345 19.968 41.5716C20.8819 40.8905 21.7896 40.1995 22.69 39.5C24.0572 38.4419 25.4108 37.3667 26.7607 36.2865L29.8731 38.453Z" fill="#06AFE2"/>
</g>
<defs>
<linearGradient id="paint0_linear_14_360" x1="11.5507" y1="24.3195" x2="15.2925" y2="41.6788" gradientUnits="userSpaceOnUse">
<stop stop-color="#66C8CE" stop-opacity="0"/>
<stop offset="0.08" stop-color="#4FC2D2" stop-opacity="0.23"/>
<stop offset="0.16" stop-color="#3CBDD6" stop-opacity="0.43"/>
<stop offset="0.25" stop-color="#2BB8DA" stop-opacity="0.61"/>
<stop offset="0.34" stop-color="#1EB5DC" stop-opacity="0.75"/>
<stop offset="0.43" stop-color="#13B2DF" stop-opacity="0.86"/>
<stop offset="0.52" stop-color="#0BB0E0" stop-opacity="0.94"/>
<stop offset="0.62" stop-color="#07AFE1" stop-opacity="0.98"/>
<stop offset="0.74" stop-color="#06AFE2"/>
</linearGradient>
<linearGradient id="paint1_linear_14_360" x1="42.3266" y1="23.8133" x2="33.0176" y2="38.2165" gradientUnits="userSpaceOnUse">
<stop stop-color="#F7B0BD" stop-opacity="0"/>
<stop offset="0.02" stop-color="#F6ABBB" stop-opacity="0.08"/>
<stop offset="0.08" stop-color="#F59FB6" stop-opacity="0.27"/>
<stop offset="0.15" stop-color="#F495B2" stop-opacity="0.44"/>
<stop offset="0.22" stop-color="#F38CAF" stop-opacity="0.59"/>
<stop offset="0.3" stop-color="#F284AC" stop-opacity="0.72"/>
<stop offset="0.39" stop-color="#F27EAA" stop-opacity="0.82"/>
<stop offset="0.48" stop-color="#F179A8" stop-opacity="0.9"/>
<stop offset="0.59" stop-color="#F176A6" stop-opacity="0.96"/>
<stop offset="0.73" stop-color="#F174A6" stop-opacity="0.99"/>
<stop offset="1" stop-color="#F174A6"/>
</linearGradient>
<linearGradient id="paint2_linear_14_360" x1="17.0834" y1="39.7783" x2="17.2189" y2="39.9988" gradientUnits="userSpaceOnUse">
<stop stop-color="white" stop-opacity="0"/>
<stop offset="0.08" stop-color="#D6F1FA" stop-opacity="0.16"/>
<stop offset="0.21" stop-color="#97DDF2" stop-opacity="0.42"/>
<stop offset="0.33" stop-color="#63CDEC" stop-opacity="0.62"/>
<stop offset="0.45" stop-color="#3ABFE8" stop-opacity="0.79"/>
<stop offset="0.56" stop-color="#1DB6E4" stop-opacity="0.9"/>
<stop offset="0.66" stop-color="#0CB0E2" stop-opacity="0.98"/>
<stop offset="0.74" stop-color="#06AFE2"/>
</linearGradient>
<linearGradient id="paint3_linear_14_360" x1="17.7793" y1="39.8978" x2="17.8089" y2="39.9458" gradientUnits="userSpaceOnUse">
<stop stop-color="white" stop-opacity="0"/>
<stop offset="0.08" stop-color="#D6F1FA" stop-opacity="0.16"/>
<stop offset="0.21" stop-color="#97DDF2" stop-opacity="0.42"/>
<stop offset="0.33" stop-color="#63CDEC" stop-opacity="0.62"/>
<stop offset="0.45" stop-color="#3ABFE8" stop-opacity="0.79"/>
<stop offset="0.56" stop-color="#1DB6E4" stop-opacity="0.9"/>
<stop offset="0.66" stop-color="#0CB0E2" stop-opacity="0.98"/>
<stop offset="0.74" stop-color="#06AFE2"/>
</linearGradient>
<clipPath id="clip0_14_360">
<rect width="50" height="50" fill="white"/>
</clipPath>
</defs>
</svg>
