<svg width="36" height="36" viewBox="0 0 36 36" fill="none" xmlns="http://www.w3.org/2000/svg">
<g clip-path="url(#clip0_14_389)">
<path d="M14.247 8.68949C16.377 5.83349 19.5795 4.99949 22.5255 5.80199C25.7055 6.66749 28.5015 9.39899 29.43 13.203C29.478 13.398 29.52 13.593 29.5545 13.788C28.2141 13.3107 26.7563 13.2739 25.3935 13.683C23.463 12.255 21.072 12.015 18.9465 12.798C16.284 13.7805 14.205 16.272 13.7235 19.407C13.1085 23.421 15.5535 27.027 19.011 30.093L19.593 30.597C19.1235 30.63 18.6465 30.5565 18.1905 30.459C17.9561 30.4089 17.7231 30.3529 17.4915 30.291L16.686 30.066C9.52502 28.0515 4.73102 24.9 3.35552 20.19C2.25752 16.431 3.31352 12.6675 5.63552 10.3275C7.78652 8.15999 10.9755 7.28099 14.247 8.68949ZM16.689 19.8615C17.331 15.6735 22.1745 13.6095 24.6615 17.2035C24.6854 17.2369 24.7214 17.2596 24.7618 17.2666C24.8022 17.2736 24.8438 17.2644 24.8775 17.241C28.443 14.715 32.2875 18.3105 31.458 22.4655C30.978 24.8745 28.743 26.8755 24.753 28.4655L24.1005 28.7205L23.706 28.8825C23.3655 29.016 23.0055 29.1225 22.68 29.0655C22.356 29.0085 22.0545 28.7835 21.78 28.5435L21.315 28.1235C17.8455 25.137 16.3035 22.383 16.689 19.8615Z" fill="white"/>
</g>
<defs>
<clipPath id="clip0_14_389">
<rect width="36" height="36" fill="white"/>
</clipPath>
</defs>
</svg>
